<svg viewBox="0 0 100 100" xmlns="http://www.w3.org/2000/svg" height="400" width="400"><path d="M10.987 46.633a40 40 0 1 0 80 0 40 40 0 1 0-80 0Z" fill="#f0f2ff"/><path d="M46.32 10.31h49.335v44.275H46.32Z" fill="#fff" stroke="#3c50e5"/><path d="m55.175 34.642 8.855-3.795 10.12-6.325M74.15 24.522l12.65 6.325" fill="none" stroke="#3c50e5" stroke-linecap="round" stroke-linejoin="round"/><path d="M58.86 46.616h-6.215v-3.7a1.265 1.265 0 0 1 1.265-1.265h3.69a1.265 1.265 0 0 1 1.265 1.265ZM67.825 46.616H62.17v-7.01a1.265 1.265 0 0 1 1.265-1.265h3.125a1.266 1.266 0 0 1 1.265 1.265ZM77.855 46.616H71.62V34.642a1.265 1.265 0 0 1 1.265-1.265h3.7a1.265 1.265 0 0 1 1.265 1.265ZM87.975 46.616H81.74v-9.444a1.265 1.265 0 0 1 1.265-1.265h3.7a1.265 1.265 0 0 1 1.265 1.265Z" fill="#fff" stroke="#3c50e5"/><path d="M70.355 19.462h-12.65M70.355 15.667h-12.65M62.765 23.257h-5.06" fill="none" stroke="#3c50e5" stroke-linecap="round" stroke-linejoin="round"/><path d="M53.91 34.642a1.265 1.265 0 1 0 2.53 0 1.265 1.265 0 1 0-2.53 0ZM62.765 30.847a1.265 1.265 0 1 0 2.53 0 1.265 1.265 0 1 0-2.53 0ZM72.885 24.522a1.265 1.265 0 1 0 2.53 0 1.265 1.265 0 1 0-2.53 0ZM85.535 30.847a1.265 1.265 0 1 0 2.53 0 1.265 1.265 0 1 0-2.53 0ZM58.86 46.616h-6.215v2.53a1.265 1.265 0 0 0 1.265 1.265h3.69a1.265 1.265 0 0 0 1.265-1.265ZM67.825 46.616H62.17v1.265a1.265 1.265 0 0 0 1.265 1.265h3.125a1.266 1.266 0 0 0 1.265-1.265ZM77.855 46.616H71.62v2.53a1.265 1.265 0 0 0 1.265 1.265h3.7a1.265 1.265 0 0 0 1.265-1.265ZM87.975 46.616H81.74v.676a1.265 1.265 0 0 0 1.265 1.265h3.7a1.265 1.265 0 0 0 1.265-1.265Z" fill="#d6daff" stroke="#3c50e5"/><path d="M76.832 54.021a.553.553 0 0 1 .612.551 5.816 5.816 0 1 1-7.033-5.689.554.554 0 0 1 .667.483l.176 1.666a.553.553 0 0 1-.408.594 3.046 3.046 0 1 0 3.825 3.094.552.552 0 0 1 .495-.523Z" fill="#d6daff"/><path d="M76.832 54.021a.553.553 0 0 1 .612.551 5.816 5.816 0 1 1-7.033-5.689.554.554 0 0 1 .667.483l.176 1.666a.553.553 0 0 1-.408.594 3.046 3.046 0 1 0 3.825 3.094.552.552 0 0 1 .495-.523Z" fill="none" stroke="#3c50e5" stroke-linecap="round" stroke-linejoin="round"/><path d="m43.57 57.948 3.09-3.175 11.907 11.591-3.09 3.175z" fill="#d6daff"/><path d="m43.57 57.948 3.09-3.175 11.907 11.591-3.09 3.175z" fill="none" stroke="#3c50e5" stroke-linecap="round" stroke-linejoin="round"/><path d="m56.828 66.511 9.188-8.064 2.923 3.33-9.188 8.064z" fill="#d6daff"/><path d="m56.828 66.511 9.188-8.064 2.923 3.33-9.188 8.064z" fill="none" stroke="#3c50e5" stroke-linecap="round" stroke-linejoin="round"/><path d="M65.339 59.076a3.323 3.323 0 1 0 6.646 0 3.323 3.323 0 1 0-6.646 0ZM54.469 68.617a3.323 3.323 0 1 0 6.646 0 3.323 3.323 0 1 0-6.646 0Z" fill="#fff" stroke="#3c50e5" stroke-linecap="round" stroke-linejoin="round"/><path d="M30.617 46.846h4.431v4.431h-4.431z" fill="#d6daff"/><path d="M30.617 46.846h4.431v4.431h-4.431z" fill="none" stroke="#3c50e5" stroke-linecap="round" stroke-linejoin="round"/><path d="M23.97 51.277h17.725v16.617H23.97Z" fill="#fff" stroke="#3c50e5" stroke-linecap="round" stroke-linejoin="round"/><path d="M29.51 67.894h6.647v5.642H29.51z" fill="#d6daff"/><path d="M29.51 67.894h6.647v5.642H29.51z" fill="none" stroke="#3c50e5" stroke-linecap="round" stroke-linejoin="round"/><path d="M37.264 59.032a2.215 2.215 0 0 1-2.215 2.215h-4.432a2.215 2.215 0 0 1-2.217-2.215v-7.755h8.862Z" fill="#d6daff"/><path d="m35.785 51.277-7.383 7.378v-7.378h7.383z" fill="#fff"/><path d="M37.264 59.032a2.215 2.215 0 0 1-2.215 2.215h-4.432a2.215 2.215 0 0 1-2.217-2.215v-7.755h8.862Z" fill="none" stroke="#3c50e5" stroke-linecap="round" stroke-linejoin="round"/><path d="M39.175 73.537a2.215 2.215 0 0 1 2.089 2.954 8.866 8.866 0 0 1-16.716 0 2.215 2.215 0 0 1 2.089-2.954Z" fill="#fff" stroke="#3c50e5" stroke-linecap="round" stroke-linejoin="round"/><path d="M6.21 67.705 17.073 55.13l3.353 2.896L9.564 70.601z" fill="#d6daff"/><path d="M6.21 67.705 17.073 55.13l3.353 2.896L9.564 70.601z" fill="none" stroke="#3c50e5" stroke-linecap="round" stroke-linejoin="round"/><path d="M23.97 59.032h-4.448a3.323 3.323 0 0 1-3.322-3.324V54.6a3.323 3.323 0 0 1 3.323-3.324h2.216a2.241 2.241 0 0 1 2.232 2.216Z" fill="#fff" stroke="#3c50e5" stroke-linecap="round" stroke-linejoin="round"/><path d="m5.741 70.88 4.244-1.277 3.521 11.707-4.243 1.276z" fill="#d6daff"/><path d="m5.741 70.88 4.244-1.277 3.521 11.707-4.243 1.276z" fill="none" stroke="#3c50e5" stroke-linecap="round" stroke-linejoin="round"/><path d="M13.042 92.989a.555.555 0 0 1-.756.328 5.816 5.816 0 1 1 8.1-4.036.555.555 0 0 1-.717.406l-1.589-.532a.554.554 0 0 1-.37-.618 3.047 3.047 0 1 0-4.4 2.195.553.553 0 0 1 .27.668Z" fill="#d6daff"/><path d="M13.042 92.989a.555.555 0 0 1-.756.328 5.816 5.816 0 1 1 8.1-4.036.555.555 0 0 1-.717.406l-1.589-.532a.554.554 0 0 1-.37-.618 3.047 3.047 0 1 0-4.4 2.195.553.553 0 0 1 .27.668Z" fill="none" stroke="#3c50e5" stroke-linecap="round" stroke-linejoin="round"/><path d="M8.512 83.457a3.323 3.323 0 1 0 6.646 0 3.323 3.323 0 1 0-6.646 0ZM4.346 69.607a3.323 3.323 0 1 0 6.646 0 3.323 3.323 0 1 0-6.646 0ZM41.7 59.032h4.449a3.324 3.324 0 0 0 3.323-3.324V54.6a3.324 3.324 0 0 0-3.323-3.324h-2.221a2.243 2.243 0 0 0-2.228 2.217Z" fill="#fff" stroke="#3c50e5" stroke-linecap="round" stroke-linejoin="round"/><path d="M17.394 23.374h30.877v24.26H17.394Z" fill="#d6daff"/><path d="M21.111 47.634H20.7a3.308 3.308 0 0 1-3.308-3.308V26.682a3.308 3.308 0 0 1 3.308-3.308h24.264Z" fill="#fff"/><path d="M23.77 38.8a1.631 1.631 0 0 0 1.63-1.629 1.985 1.985 0 0 1 .612-1.683 2.36 2.36 0 0 1 .542 1.683 1.629 1.629 0 1 0 3.257 0c0-2.768-1.685-4.936-3.834-4.936s-3.834 2.168-3.834 4.936A1.63 1.63 0 0 0 23.77 38.8ZM41.9 38.8a1.631 1.631 0 0 1-1.629-1.629 1.988 1.988 0 0 0-.612-1.683 2.36 2.36 0 0 0-.542 1.683 1.629 1.629 0 1 1-3.257 0c0-2.768 1.684-4.936 3.834-4.936s3.834 2.168 3.834 4.936A1.63 1.63 0 0 1 41.9 38.8Z" fill="#fff" stroke="#3c50e5" stroke-linecap="round" stroke-linejoin="round"/><path d="M17.394 23.374h30.877v24.26H17.394Z" fill="none" stroke="#3c50e5" stroke-linecap="round" stroke-linejoin="round"/></svg>