<svg width="89" height="68" xmlns="http://www.w3.org/2000/svg"><g fill="none" fill-rule="evenodd"><path d="M85 40A40 40 0 1 0 8.56 56.5h72.87A39.77 39.77 0 0 0 85 40Z" fill="#F0F2FF" fill-rule="nonzero"/><path stroke="#4550E5" stroke-linecap="round" stroke-linejoin="round" d="M5.5 56.5h78M1 56.5h2.5M85.5 56.5H88"/><g transform="translate(16 11)"><path d="M22.56 3.58a2.44 2.44 0 0 0-.9.17 4.19 4.19 0 0 0-8.27 0 2.49 2.49 0 0 0-.91-.17 2.52 2.52 0 0 0 0 5h10.08a2.52 2.52 0 0 0 0-5Z" stroke="#4550E5" fill="#FFF" fill-rule="nonzero" stroke-linejoin="round"/><path d="M22.56 3.58a2.44 2.44 0 0 0-.9.17 4.19 4.19 0 0 0-8.27 0 2.49 2.49 0 0 0-.91-.17 2.52 2.52 0 0 0 0 5h10.08a2.52 2.52 0 0 0 0-5ZM61.57 43.83h-7.82v-12.6h4.82a4 4 0 0 1 4 4v7.6a1 1 0 0 1-1 1Z" stroke="#4550E5" fill="#FFF" fill-rule="nonzero" stroke-linejoin="round"/><path d="M53.75 43.83h-17.9a1 1 0 0 1-1-1V29.71a1 1 0 0 1 1-1h16.9a1 1 0 0 1 1 1v14.12Z" fill="#D6DAFF" fill-rule="nonzero"/><path d="M53.75 43.83h-17.9a1 1 0 0 1-1-1V29.71a1 1 0 0 1 1-1h16.9a1 1 0 0 1 1 1v14.12Z" stroke="#4550E5" stroke-linejoin="round"/><path d="M53.75 43.83h-17.9a1 1 0 0 1-1-1v-1.52h18.9v2.52Z" stroke="#4550E5" fill="#FFF" fill-rule="nonzero" stroke-linejoin="round"/><path d="M37.37 43.82a2.52 2.52 0 1 0 5.04 0 2.52 2.52 0 0 0-5.04 0Z" fill="#D6DAFF" fill-rule="nonzero"/><path d="M37.37 43.82a2.52 2.52 0 1 0 5.04 0 2.52 2.52 0 0 0-5.04 0Z" stroke="#4550E5" stroke-linejoin="round"/><path d="M51.23 43.82a2.52 2.52 0 1 0 5.04 0 2.52 2.52 0 0 0-5.04 0Z" fill="#D6DAFF" fill-rule="nonzero"/><path d="M51.23 43.82a2.52 2.52 0 1 0 5.04 0 2.52 2.52 0 0 0-5.04 0Z" stroke="#4550E5" stroke-linejoin="round"/><path d="M59.05 37.53h-1.73a1 1 0 0 1-1-1v-1.78a1 1 0 0 1 1-1h.78a2 2 0 0 1 2 2v.78a1 1 0 0 1-1 1h-.05Z" fill="#D6DAFF" fill-rule="nonzero"/><path d="M58 33.74h-.63a1 1 0 0 0-1 1v1.68c0 .281.112.55.31.75l2.85-2.86a2.09 2.09 0 0 0-1.53-.57Z" fill="#FFF" fill-rule="nonzero"/><path d="M59.05 37.53h-1.73a1 1 0 0 1-1-1v-1.78a1 1 0 0 1 1-1h.78a2 2 0 0 1 2 2v.78a1 1 0 0 1-1 1h-.05Z" stroke="#4550E5" stroke-linejoin="round"/><path d="M61.62 43.83H60.1v-2.15a1 1 0 0 1 1-1h1.52v2.15a1 1 0 0 1-1 1Z" stroke="#4550E5" fill="#FFF" fill-rule="nonzero" stroke-linejoin="round"/><ellipse fill="#F0F2FF" fill-rule="nonzero" cx="15.63" cy="54.82" rx="14.7" ry="1.58"/><rect fill="#FFF" fill-rule="nonzero" x=".83" y="22.27" width="30.24" height="31.5" rx="1"/><rect stroke="#4550E5" stroke-linecap="round" stroke-linejoin="round" x=".83" y="22.27" width="30.24" height="31.5" rx="1"/><path d="M12.17 22.27h7.56v11.6a1 1 0 0 1-1 1h-5.56a1 1 0 0 1-1-1v-11.6Z" stroke="#4550E5" fill="#D6DAFF" fill-rule="nonzero" stroke-linecap="round" stroke-linejoin="round"/><path stroke="#4550E5" stroke-linecap="round" stroke-linejoin="round" d="M7.13 44.95v5.67M4.61 47.47l2.52-2.52 2.52 2.52M14.69 44.95v5.67M12.17 47.47l2.52-2.52 2.52 2.52"/></g></g></svg>