<svg width="89" height="62" xmlns="http://www.w3.org/2000/svg"><g fill="none" fill-rule="evenodd"><path d="M84.1 40A40 40 0 1 0 7.66 56.5h72.88A39.84 39.84 0 0 0 84.1 40Z" fill="#F0F2FF" fill-rule="nonzero"/><path stroke="#4550E5" stroke-linecap="round" stroke-linejoin="round" d="M5.1 56.5h78M.6 56.5h2.5M85.1 56.5h2.5"/><g transform="translate(7 16)"><path fill="#FFF" fill-rule="nonzero" d="M18.7 21.24h37.2v18H18.7z"/><ellipse fill="#F0F2FF" fill-rule="nonzero" cx="37.39" cy="43.74" rx="23.49" ry="1.5"/><path stroke="#4550E5" stroke-linejoin="round" d="M18.7 21.24h37.2v18H18.7z"/><path d="M18.7 39.24h37.2a2.4 2.4 0 0 1 2.4 2.4v.2a1 1 0 0 1-1 1h-40a1 1 0 0 1-1-1v-.2a2.4 2.4 0 0 1 2.4-2.4Z" stroke="#4550E5" fill="#D6DAFF" fill-rule="nonzero" stroke-linejoin="round"/><rect fill="#D6DAFF" fill-rule="nonzero" x="17.5" y="17.64" width="39.6" height="3.6" rx="1.2"/><rect stroke="#4550E5" stroke-linejoin="round" x="17.5" y="17.64" width="39.6" height="3.6" rx="1.2"/><path stroke="#4550E5" fill="#D6DAFF" fill-rule="nonzero" stroke-linejoin="round" d="M49.9 12.84h4.2v4.8h-4.2z"/><path d="M30.7 14h13.2a1.2 1.2 0 0 1 1.2 1.2v2.4H29.5v-2.4a1.2 1.2 0 0 1 1.2-1.2Z" fill="#D6DAFF" fill-rule="nonzero"/><path d="M30.7 14h13.2a1.2 1.2 0 0 1 1.2 1.2v2.4H29.5v-2.4a1.2 1.2 0 0 1 1.2-1.2Z" stroke="#4550E5" stroke-linejoin="round"/><path d="m55 11.87-2.8-1.18 2-4.72A1.52 1.52 0 0 1 57 7.15l-2 4.72Z" fill="#D6DAFF" fill-rule="nonzero"/><path d="m55 11.87-2.8-1.18 2-4.72A1.52 1.52 0 0 1 57 7.15l-2 4.72Z" stroke="#4550E5" stroke-linejoin="round"/><path d="M52.2 10.69H52a4.43 4.43 0 0 0-4.19 2.67 1.208 1.208 0 1 0 2.2 1 1.2 1.2 0 0 1 1.58-.63l1.65.71a1.2 1.2 0 0 1 .61 1.56 1.208 1.208 0 1 0 2.2 1 4.43 4.43 0 0 0-.93-5l-.12-.13-2.8-1.18Z" fill="#FFF" fill-rule="nonzero"/><path d="M52.2 10.69H52a4.43 4.43 0 0 0-4.19 2.67 1.208 1.208 0 1 0 2.2 1 1.2 1.2 0 0 1 1.58-.63l1.65.71a1.2 1.2 0 0 1 .61 1.56 1.208 1.208 0 1 0 2.2 1 4.43 4.43 0 0 0-.93-5l-.12-.13-2.8-1.18Z" stroke="#4550E5" stroke-linejoin="round"/><path stroke="#4550E5" fill="#D6DAFF" fill-rule="nonzero" stroke-linejoin="round" d="M24.7 17.65h-4.2v-4.8h4.2z"/><path d="m19.64 11.87 2.75-1.19-2-4.72a1.5 1.5 0 0 0-2.75 1.19l2 4.72Z" fill="#D6DAFF" fill-rule="nonzero"/><path d="m19.64 11.87 2.75-1.19-2-4.72a1.5 1.5 0 0 0-2.75 1.19l2 4.72Z" stroke="#4550E5" stroke-linejoin="round"/><path d="M22.39 10.69h.23a4.43 4.43 0 0 1 4.19 2.67 1.208 1.208 0 1 1-2.2 1 1.2 1.2 0 0 0-1.61-.68l-1.65.71a1.2 1.2 0 0 0-.6 1.61 1.208 1.208 0 0 1-2.2 1 4.43 4.43 0 0 1 .92-5l.16-.16 2.76-1.15Z" fill="#FFF" fill-rule="nonzero"/><path d="M22.39 10.69h.23a4.43 4.43 0 0 1 4.19 2.67 1.208 1.208 0 1 1-2.2 1 1.2 1.2 0 0 0-1.61-.68l-1.65.71a1.2 1.2 0 0 0-.6 1.61 1.208 1.208 0 0 1-2.2 1 4.43 4.43 0 0 1 .92-5l.16-.16 2.76-1.15Z" stroke="#4550E5" stroke-linejoin="round"/><path d="M40.45 25.44a.57.57 0 0 0-.49-.85h-3.43a.57.57 0 0 0-.48.27l-3.44 5.56a.57.57 0 0 0 .48.87h3.71l-1.11 4.2a.57.57 0 0 0 1 .51l5.27-6.36a.57.57 0 0 0-.44-.93h-2.94l1.87-3.27Z" stroke="#4550E5" fill="#D6DAFF" fill-rule="nonzero" stroke-linecap="round" stroke-linejoin="round"/><path d="M56.29 5.21a9.25 9.25 0 1 1 12.35 12.74A8 8 0 0 0 64.35 25v15.5M18 5.21A9.25 9.25 0 1 0 5.6 17.95 8 8 0 0 1 9.89 25v15.5" stroke="#4550E5" stroke-linejoin="round"/></g></g></svg>