<svg width="88" height="81" xmlns="http://www.w3.org/2000/svg"><g fill="none" fill-rule="evenodd"><circle fill="#F0F2FF" fill-rule="nonzero" cx="44" cy="40" r="40"/><path d="M7.55 56.5a40 40 0 0 0 68.07 8 40 40 0 0 0 4.83-8H7.55Z" fill="#FFF" fill-rule="nonzero"/><path stroke="#4550E5" stroke-linecap="round" stroke-linejoin="round" d="M5 56.5h78M.5 56.5H3M85 56.5h2.5"/><path stroke="#D6DAFF" stroke-linecap="round" d="M16.5 64.5h2"/><path stroke="#D6DAFF" stroke-linecap="round" stroke-dasharray="4.35" d="M25.02 64.5h40.22"/><path stroke="#D6DAFF" stroke-linecap="round" d="M68.5 64.5h2"/><g transform="translate(9 10)"><path d="M65.23 34.7a2.66 2.66 0 0 0-2.32-3.1 2.35 2.35 0 0 0-4.25-1.39 3.52 3.52 0 0 0-4.41-.36v-.22a2.75 2.75 0 0 0-2.75-2.75 2.72 2.72 0 0 0-1.29.34 3.52 3.52 0 0 0-6.8-.14 2.35 2.35 0 0 0-3.3 2.16v.15a2.33 2.33 0 0 0-.8-.15A2.36 2.36 0 0 0 37 31.56v14.92h28.27V34.7h-.04Z" fill="#D6DAFF" fill-rule="nonzero"/><path d="M4.22 23.71H36a1 1 0 0 1 1 1v21.77H3.22V24.71a1 1 0 0 1 1-1Z" fill="#FFF" fill-rule="nonzero"/><path d="M65.23 34.7a2.66 2.66 0 0 0-2.32-3.1 2.35 2.35 0 0 0-4.25-1.39 3.52 3.52 0 0 0-4.41-.36v-.22a2.75 2.75 0 0 0-2.75-2.75 2.72 2.72 0 0 0-1.29.34 3.52 3.52 0 0 0-6.8-.14 2.35 2.35 0 0 0-3.3 2.16v.15a2.33 2.33 0 0 0-.8-.15A2.36 2.36 0 0 0 37 31.56v14.92h28.27V34.7h-.04ZM4.22 23.71H36a1 1 0 0 1 1 1v21.77H3.22V24.71a1 1 0 0 1 1-1Z" stroke="#4550E5" stroke-linecap="round" stroke-linejoin="round"/><path d="m26.78 46.48-10.21-9.42v-4.71l9.13 8.42a3.37 3.37 0 0 1 1.08 2.47v3.24Z" stroke="#4550E5" fill="#D6DAFF" fill-rule="nonzero" stroke-linecap="round" stroke-linejoin="round"/><path d="M23.07 14.28h9a1 1 0 0 1 1 1v8.42h-11v-8.42a1 1 0 0 1 1-1Z" fill="#FFF" fill-rule="nonzero"/><path d="M23.07 14.28h9a1 1 0 0 1 1 1v8.42h-11v-8.42a1 1 0 0 1 1-1Z" stroke="#4550E5" stroke-linecap="round" stroke-linejoin="round"/><path d="M37 33.92h13.92a1 1 0 0 1 1 1v11.56H37V33.92ZM64.7 33.92h2.71a1 1 0 0 1 1 1v11.56H63.7V34.92a1 1 0 0 1 1-1Z" fill="#FFF" fill-rule="nonzero"/><path d="M37 33.92h13.92a1 1 0 0 1 1 1v11.56H37V33.92ZM64.7 33.92h2.71a1 1 0 0 1 1 1v11.56H63.7V34.92a1 1 0 0 1 1-1Z" stroke="#4550E5" stroke-linecap="round" stroke-linejoin="round"/><path stroke="#4550E5" fill="#FFF" fill-rule="nonzero" stroke-linecap="round" stroke-linejoin="round" d="M51.92 37.06H63.7v9.42H51.92z"/><path stroke="#4550E5" stroke-linecap="round" stroke-linejoin="round" d="M.08 37.06v9.42l7.07-9.42v9.42l7.07-9.42v9.42l-7.07-9.42v9.42z"/><path d="M26.78 14.28 40.36 1.42a1.91 1.91 0 0 1 2.66 0 1.91 1.91 0 0 1 .3 2.31L33.07 21.35V15.4a1.12 1.12 0 0 0-1.12-1.12h-5.17Z" fill="#FFF" fill-rule="nonzero"/><path d="M26.78 14.28 40.36 1.42a1.91 1.91 0 0 1 2.66 0h0a1.91 1.91 0 0 1 .3 2.31L33.07 21.35V15.4a1.12 1.12 0 0 0-1.12-1.12h-5.17ZM43.32 3.77v12.08M41.06 21.22a3.14 3.14 0 1 1 4.44 0" stroke="#4550E5" stroke-linecap="round" stroke-linejoin="round"/><path d="M8.72 20.56a1.57 1.57 0 0 0-1.57 1.57V30h3.14v-7.86a1.57 1.57 0 0 0-1.57-1.58Z" fill="#FFF" fill-rule="nonzero"/><path d="M8.72 20.56h0a1.57 1.57 0 0 0-1.57 1.57V30h3.14v-7.86a1.57 1.57 0 0 0-1.57-1.58Z" stroke="#4550E5" stroke-linecap="round" stroke-linejoin="round"/><path d="M32.28 20.56a1.57 1.57 0 0 0-1.57 1.57v24.35h3.14V22.14a1.57 1.57 0 0 0-1.57-1.58Z" fill="#FFF" fill-rule="nonzero"/><path d="M32.28 20.56h0a1.57 1.57 0 0 0-1.57 1.57v24.35h3.14V22.14a1.57 1.57 0 0 0-1.57-1.58Z" stroke="#4550E5" stroke-linecap="round" stroke-linejoin="round"/><rect fill="#D6DAFF" fill-rule="nonzero" x="15.79" y="27.63" width="3.93" height="3.93" rx="1"/><path d="M18.59 27.63h-1.68a1.12 1.12 0 0 0-1.12 1.12v1.68c.001.297.12.58.33.79L19.39 28a1.12 1.12 0 0 0-.8-.37Z" fill="#FFF" fill-rule="nonzero"/><rect stroke="#4550E5" stroke-linecap="round" stroke-linejoin="round" x="15.79" y="27.63" width="3.93" height="3.93" rx="1"/><rect fill="#D6DAFF" fill-rule="nonzero" x="23.64" y="27.63" width="3.93" height="3.93" rx="1"/><path d="M26.45 27.63h-1.69a1.12 1.12 0 0 0-1.12 1.12v1.68c.001.297.12.58.33.79L27.24 28a1.12 1.12 0 0 0-.79-.37Z" fill="#FFF" fill-rule="nonzero"/><rect stroke="#4550E5" stroke-linecap="round" stroke-linejoin="round" x="23.64" y="27.63" width="3.93" height="3.93" rx="1"/><path d="M2.08 30h13.49a1 1 0 0 1 1 1v6.07H.08V32a2 2 0 0 1 2-2Z" stroke="#4550E5" fill="#FFF" fill-rule="nonzero" stroke-linecap="round" stroke-linejoin="round"/><path d="M8.72 30h6.85a1 1 0 0 1 1 1v2.14H8.72V30Z" fill="#D6DAFF" fill-rule="nonzero"/><path fill="#FFF" fill-rule="nonzero" d="M13.93 29.99H8.72v3.14h2.07z"/><path d="M8.72 30h6.85a1 1 0 0 1 1 1v2.14H8.72V30Z" stroke="#4550E5" stroke-linecap="round" stroke-linejoin="round"/><path d="M2.08 30h6.64v3.14H.08V32a2 2 0 0 1 2-2Z" fill="#D6DAFF" fill-rule="nonzero"/><path d="M5.82 30h-3.5a2.24 2.24 0 0 0-2.24 2.24v.9h2.6L5.82 30Z" fill="#FFF" fill-rule="nonzero"/><path d="M2.08 30h6.64v3.14H.08V32a2 2 0 0 1 2-2Z" stroke="#4550E5" stroke-linecap="round" stroke-linejoin="round"/><path d="M22.07 18.21H25a1 1 0 0 1 1 1v4.5h-3.93v-5.5Z" fill="#D6DAFF" fill-rule="nonzero"/><path d="M25.9 18.87a1.12 1.12 0 0 0-1-.66h-2.8v4.49l3.8-3.83Z" fill="#FFF" fill-rule="nonzero"/><path d="M22.07 18.21H25a1 1 0 0 1 1 1v4.5h-3.93v-5.5ZM31.5 14.28l-.28-4.2 7.92.85-.66-7.73 4.98.27M40.13 46.48v-8.64M44.06 46.48v-8.64M47.99 46.48v-8.64" stroke="#4550E5" stroke-linecap="round" stroke-linejoin="round"/><ellipse fill="#F0F2FF" fill-rule="nonzero" cx="53.94" cy="53.24" rx="14.59" ry="1.68"/><path d="M62.36 48.67H48.09V41a1 1 0 0 1 1-1h10.58a1 1 0 0 1 1 .83l1.69 7.84Z" stroke="#4550E5" fill="#FFF" fill-rule="nonzero" stroke-linecap="round" stroke-linejoin="round"/><path d="M41.74 51h6.35v-9.37h-3.82a2.09 2.09 0 0 0-2 1.37l-1 2.79a1 1 0 0 0-.06.36v4.27a.52.52 0 0 0 .53.58Z" stroke="#4550E5" fill="#D6DAFF" fill-rule="nonzero" stroke-linecap="round" stroke-linejoin="round"/><path d="M41.14 48.09h6.95V51h-6.95a.47.47 0 0 1-.47-.47v-1.97c0-.26.21-.47.47-.47h0ZM48.09 48.67h12.43v2.29H48.09z" stroke="#4550E5" fill="#FFF" fill-rule="nonzero" stroke-linecap="round" stroke-linejoin="round"/><path d="M60.79 41.23h2.45a1 1 0 0 1 .71.28l2.34 2.17c.441.388.699.943.71 1.53v4.7a1 1 0 0 1-1 1h-3.64v-2.24l-1.57-7.44Z" stroke="#4550E5" fill="#D6DAFF" fill-rule="nonzero" stroke-linecap="round" stroke-linejoin="round"/><path stroke="#4550E5" fill="#FFF" fill-rule="nonzero" stroke-linecap="round" stroke-linejoin="round" d="m61.56 44.87 5.41 3.27"/><path d="M45.59 46.09v-4.46h-1.35a2.09 2.09 0 0 0-2 1.37l-1 2.79a1 1 0 0 0-.05.29l4.4.01Z" fill="#D6DAFF" fill-rule="nonzero"/><path d="M45.11 41.63h-.87a2.09 2.09 0 0 0-2 1.37l-1 2.79a1 1 0 0 0-.05.29h1.24l2.68-4.45Z" fill="#FFF" fill-rule="nonzero"/><path d="M45.59 46.09v-4.46h-1.35a2.09 2.09 0 0 0-2 1.37l-1 2.79a1 1 0 0 0-.05.29l4.4.01Z" stroke="#4550E5" stroke-linecap="round" stroke-linejoin="round"/><circle stroke="#4550E5" fill="#D6DAFF" fill-rule="nonzero" stroke-linecap="round" stroke-linejoin="round" cx="46.72" cy="50.96" r="2.29"/><circle stroke="#4550E5" fill="#D6DAFF" fill-rule="nonzero" stroke-linecap="round" stroke-linejoin="round" cx="60.52" cy="50.96" r="2.29"/><path d="m55.69 42.86-.21-.37a.66.66 0 0 0-1.15 0" stroke="#4550E5" stroke-width=".75" stroke-linecap="round" stroke-linejoin="round"/><path fill="#4550E5" fill-rule="nonzero" d="M56.21 42.33v1.42l-1.24-.71z"/><path d="M55.93 45.92h.37a.66.66 0 0 0 .58-1" stroke="#4550E5" stroke-width=".75" stroke-linecap="round" stroke-linejoin="round"/><path fill="#4550E5" fill-rule="nonzero" d="m56.14 46.63-1.23-.71 1.23-.72z"/><path d="m53.15 44.54-.22.38a.66.66 0 0 0 .58 1" stroke="#4550E5" stroke-width=".75" stroke-linecap="round" stroke-linejoin="round"/><path fill="#4550E5" fill-rule="nonzero" d="m52.43 44.36 1.23-.71v1.43z"/></g></g></svg>