<svg data-name="Layer 1" xmlns="http://www.w3.org/2000/svg" width="975.944" height="564.457"><ellipse cx="232" cy="552.457" rx="232" ry="12" fill="#e6e6e6"/><path d="m339.9 306.101-13.339-6.669 11.115-30.011 2.93-15.135a11.444 11.444 0 0 1 18.683-6.514 11.444 11.444 0 0 1 1.488 15.837l-10.874 13.593Z" fill="#a0616a"/><path d="m344.35 302.767-2.46 7.7-11.04 34.59a18.497 18.497 0 0 1-33.49 3.89l-35.79-61.34a19.287 19.287 0 0 1-1.46-3 18.886 18.886 0 0 1 34.6-15.05l21.85 46.55 10-22.23Z" fill="#e6e6e6"/><path d="m339.198 526.203-24.454 2.223-13.338-96.703c-43.967 7.397-85.447 9.767-121.325.819a22.65 22.65 0 0 1-16.1-29.09c4.294-12.816 11.859-26.549 20.715-40.644l58.91 21.12 2.224 8.892 62.836-7.954a23.063 23.063 0 0 1 25.942 21.994Z" fill="#2f2e41"/><path d="M365.829 544.94a8.746 8.746 0 0 0-3.914-8.576l-25.102-12.32-18.925 2.39-4.47 16.023a8.527 8.527 0 0 0 7.46 9.867l35.315.077a8.746 8.746 0 0 0 9.636-7.46ZM345.375 513.839l-24.453 2.223-13.339-96.703c-43.967 7.397-85.447 9.766-121.324.818a22.65 22.65 0 0 1-16.1-29.09c4.293-12.815 11.858-26.548 20.714-40.643l58.91 21.12 2.224 8.891 62.836-7.954a23.063 23.063 0 0 1 25.942 21.994Z" fill="#2f2e41"/><path d="M372.006 532.577a8.746 8.746 0 0 0-3.913-8.578l-25.102-12.318-18.926 2.389-4.47 16.023a8.527 8.527 0 0 0 7.46 9.867l35.315.077a8.746 8.746 0 0 0 9.636-7.46Z" fill="#2f2e41"/><circle cx="300.914" cy="219.284" r="30.011" fill="#a0616a"/><path fill="#a0616a" d="m299.803 280.418-34.458-4.446 13.338-41.127h33.346l-12.226 45.573z"/><path d="M309.18 321.887a47.076 47.076 0 0 1-7.5 13.42 64.01 64.01 0 0 1-16.3 14.22c-1.08.7-2.2 1.37-3.36 2.03l-6.62 5.64-23.39 19.92-64.47-24.45c14.22-31.6 31.96-56.58 52.29-76.7a36.673 36.673 0 0 1 39.19-14.92l24.12 6.03c8.58 20.25 11.77 38.87 6.04 54.81Z" fill="#e6e6e6"/><path d="M319.764 276.36a2.327 2.327 0 0 0-.048 3.275c.742.32 15.45 17.08 16.352 15.927a2.316 2.316 0 0 0 1.66-.676l44.872-44.678a2.313 2.313 0 0 0 .672-1.884c1.21-1.135-18.097-12.575-18.687-13.198a2.308 2.308 0 0 0-2.889.284Z" fill="#3f3d56"/><path d="m378.753 247.848-1.826-1.164a1.75 1.75 0 0 1-2.504 2.284l-11.816-8.124a1.75 1.75 0 0 1 .46-3.091c-.468-.16-1.224-1.11-1.732-.511l-39.751 39.065c-1.416.689 14.443 14.432 14.452 14.972 1.184 1.32 41.959-42.42 42.826-42.45a.634.634 0 0 0-.109-.981Z" fill="#fff"/><path fill="#7f7fc8" d="m332.874 267.681 12.194 11.497 29.006-28.657-14.721-9.581-26.479 26.741z"/><path d="M372.947 257.594a.433.433 0 0 0 .597 0c.133-.371 3.23-2.626 2.536-3.134a.433.433 0 0 0-.597 0c-.133.371-3.23 2.626-2.536 3.134ZM369.27 261.867c.134-.372 3.23-2.626 2.537-3.134-.516-.687-2.752 2.396-3.133 2.537-.393.382.216.988.597.597Z" fill="#e6e6e6"/><path d="M336.004 277.55c.054 3.696-5.751 3.696-5.697 0-.054-3.696 5.752-3.696 5.697 0Z" fill="#7f7fc8"/><path d="M301.68 335.307a64.01 64.01 0 0 1-16.3 14.22c-1.08.7-2.2 1.37-3.36 2.03l-6.62 5.64c-13.14-17.27-12.4-69.74-12.4-69.74l20 2Z" opacity=".2"/><path d="m340.93 321.544-13.34-6.669 11.116-30.01 2.93-15.136a11.444 11.444 0 0 1 18.682-6.514 11.444 11.444 0 0 1 1.489 15.837l-10.874 13.593Z" fill="#a0616a"/><path d="m327.59 309.318 17.785 8.892-13.496 42.29a18.5 18.5 0 0 1-13.34 12.371 18.5 18.5 0 0 1-20.149-8.478l-35.789-61.344a18.885 18.885 0 0 1 6.09-25.67 18.885 18.885 0 0 1 27.052 7.623l21.844 46.546Z" fill="#e6e6e6"/><path d="M312.21 207.595a29.43 29.43 0 0 0 8.174 4.823c3.013 1.011 6.51 1.033 9.2-.66 3.172-1.997 4.62-6.053 4.294-9.787s-2.157-7.179-4.345-10.222a43.756 43.756 0 0 0-70.768-.391c-2.808 3.815-5.033 8.245-5.276 12.976-.43 8.338 5.276 16.12 4.666 24.447-.516 7.042-5.57 13.075-11.557 16.82s-12.905 5.642-19.599 7.89-13.462 5.024-18.416 10.055-7.687 12.84-4.968 19.356c2.235 5.355 7.545 8.76 12.869 11.067a62.752 62.752 0 0 0 45.008 1.689c5.417-1.878 11.333-5.636 11.416-11.37.035-2.488-1.084-4.824-1.757-7.22s-.798-5.254.888-7.084c2.092-2.27 5.958-1.746 8.458.064s4.125 4.555 6.188 6.85c3.916 4.36 9.853 7.145 15.656 6.324s11.047-5.764 11.287-11.62c.412-10.058-12.19-16.356-13.56-26.33-.915-6.66 3.422-12.754 7.18-18.33s7.253-12.56 4.622-18.748" fill="#2f2e41"/><path d="M150.5 442.957a25.012 25.012 0 0 1-23.034-34.732l3.683 1.558a21.013 21.013 0 0 0 27.14 27.682l1.485 3.715a24.881 24.881 0 0 1-9.274 1.777Z" fill="#3f3d56"/><path d="M124.496 416.795A10.846 10.846 0 0 1 114 405.955V226.457a9.284 9.284 0 0 1 14.02 1.021c51.119 69.123 53.37 131.107 4.937 185.687a10.848 10.848 0 0 1-8.46 3.63Z" fill="#7f7fc8"/><path d="M112.5 405.957v-179a5.118 5.118 0 0 1 4.465 2.626c23.263 41.756 40.521 74.842 40.05 104.826-.421 26.777-19.233 39.14-35.642 66.538a10.34 10.34 0 0 1-8.873 5.01ZM189 442.457h-31v-8l25-7 6 15z" fill="#3f3d56"/><path d="M178 434.457h82a17 17 0 0 1-17 17h-48a17 17 0 0 1-17-17Z" fill="#3f3d56"/><path fill="#3f3d56" d="M217 449.457h11v9h-11z"/><path fill="#3f3d56" d="M213 456.457h20v27h-20zM214.5 497.957h17v36h-17z"/><path fill="#3f3d56" d="M240.5 501.957h-35l5-22h30v22z"/><path d="m209.5 499.957-71 33-1 5h-10l.478-7.65a14.614 14.614 0 0 1 7.987-12.128l75.535-38.222ZM236.5 499.957l75 33 1 5h10l-.478-7.65a14.614 14.614 0 0 0-7.987-12.128L240.5 479.957Z" fill="#3f3d56"/><circle cx="131.5" cy="547.957" r="11" fill="#3f3d56"/><circle cx="258.5" cy="547.957" r="11" fill="#3f3d56"/><circle cx="317.5" cy="547.957" r="11" fill="#3f3d56"/><path d="m262.5 540.957-8-1-2-8-27-33 12-12 21.358 32.463a22.13 22.13 0 0 1 3.642 12.164Z" fill="#3f3d56"/><path d="M295.343 436.957H162.658a13.157 13.157 0 0 1-13.158-13.158v-7.132a20.523 20.523 0 0 1 7.454-15.814c22.398-18.511 40.528-34.251 65.546-32.997 21.615 1.084 48.94 28.286 72.5 36.678a20.42 20.42 0 0 1 13.5 19.265 13.157 13.157 0 0 1-13.157 13.158Z" fill="#7f7fc8"/><path d="M858.354 333.19H484.893a6.924 6.924 0 0 1-6.916-6.915V6.915A6.924 6.924 0 0 1 484.893 0h373.461a6.924 6.924 0 0 1 6.916 6.916v319.359a6.924 6.924 0 0 1-6.916 6.916ZM484.893 2.767a4.154 4.154 0 0 0-4.15 4.15v319.359a4.154 4.154 0 0 0 4.15 4.15h373.461a4.154 4.154 0 0 0 4.15-4.15V6.915a4.154 4.154 0 0 0-4.15-4.149Z" fill="#e6e6e6"/><circle cx="542.921" cy="276.4" r="28.172" fill="#e6e6e6"/><path d="M607.985 257.619a4.695 4.695 0 1 0 0 9.39h221.35a4.695 4.695 0 0 0 0-9.39ZM607.985 285.79a4.695 4.695 0 1 0 0 9.391h95.247a4.695 4.695 0 0 0 0-9.39Z" fill="#e6e6e6"/><path d="M947.084 221.802H573.622a6.924 6.924 0 0 1-6.915-6.916V50.992a6.924 6.924 0 0 1 6.915-6.916h373.462A6.924 6.924 0 0 1 954 50.992v163.894a6.924 6.924 0 0 1-6.916 6.916Z" fill="#7f7fc8"/><path d="M649.678 101.202a4.695 4.695 0 0 0 0 9.391h221.35a4.695 4.695 0 0 0 0-9.39ZM649.678 128.409a4.695 4.695 0 0 0 0 9.39h221.35a4.695 4.695 0 0 0 0-9.39ZM649.678 155.285a4.695 4.695 0 1 0 0 9.39h95.248a4.695 4.695 0 0 0 0-9.39Z" fill="#fff"/><circle cx="947.772" cy="211.291" r="28.172" fill="#3f3d56"/><path fill="#fff" d="m945.423 223.748-8.941-11.497 5.2-4.044 4.233 5.443 14.302-15.097 4.783 4.531-19.577 20.664z"/></svg>